<svg id="Layer_1" data-name="Layer 1" xmlns="http://www.w3.org/2000/svg" viewBox="0 0 199.58 188.64"><defs><style>.cls-1,.cls-5{fill:#a31d21;}.cls-1{stroke:#a41e22;}.cls-1,.cls-11,.cls-12,.cls-2,.cls-3,.cls-4,.cls-6,.cls-7,.cls-9{stroke-miterlimit:10;}.cls-1,.cls-2,.cls-3,.cls-6{stroke-width:1.58px;}.cls-2,.cls-8{fill:#a1cd3a;}.cls-2{stroke:#a1cd3a;}.cls-10,.cls-11,.cls-3,.cls-4,.cls-6,.cls-7,.cls-9{fill:#231f20;}.cls-11,.cls-3,.cls-4,.cls-9{stroke:#231f20;}.cls-4,.cls-7{stroke-width:0.79px;}.cls-6,.cls-7{stroke:#000;}.cls-9{stroke-width:1.84px;}.cls-11{stroke-width:1.63px;}.cls-12{fill:none;stroke:#ee1c4e;stroke-width:0.03px;}</style></defs><title>200x180</title><path class="cls-1" d="M100.19,178.38A94.13,94.13,0,0,1,16.45,126.2a86.38,86.38,0,0,1-5.28-13.05,3.27,3.27,0,0,1,0-.8,3.33,3.33,0,0,1,.88,0,1.72,1.72,0,0,1,1.11,1.27A88.92,88.92,0,0,0,18.5,126.5a92.38,92.38,0,0,0,48.41,43.78,91.51,91.51,0,0,0,96.4-19,91.5,91.5,0,0,0,23.38-35.89c.24-.68.47-1.36.7-2a1.5,1.5,0,0,1,1.14-1.06,1,1,0,0,1,.71.1c.11.08.09.45,0,.64-1.06,2.89-2,5.82-3.24,8.65a93.83,93.83,0,0,1-55.56,51.5,87.44,87.44,0,0,1-19.86,4.43C107.14,178,103.66,178.14,100.19,178.38Z" transform="translate(-0.38 9.47)"/><path class="cls-2" d="M189.12,57.34A1.85,1.85,0,0,1,187.31,56c-1.07-2.82-2.06-5.68-3.28-8.43A92.09,92.09,0,0,0,118.2-5.18,89.42,89.42,0,0,0,95.28-6.84a90.54,90.54,0,0,0-45,14.68A91.6,91.6,0,0,0,22.71,35.71a89.73,89.73,0,0,0-9.6,20.21,1.77,1.77,0,0,1-1.23,1.33,1,1,0,0,1-.73,0c-.12-.1-.09-.49,0-.7,1-2.81,2-5.66,3.14-8.41a93.76,93.76,0,0,1,63-53.92A93.29,93.29,0,0,1,154.69,8.93a92.94,92.94,0,0,1,32.4,41.47c.82,2,1.47,4.11,2.2,6.17C189.43,57,189.51,57.33,189.12,57.34Z" transform="translate(-0.38 9.47)"/><path class="cls-1" d="M52.38,99.2c-3,3-7.18,2.45-7.6-2.46a9.94,9.94,0,0,1-1.05,1.35,12.56,12.56,0,0,1-2.39,1.9,4.52,4.52,0,0,1-6.69-2.61,10.17,10.17,0,0,1-.11-6,13.36,13.36,0,0,1,3.77-6.92,6,6,0,0,1,4.82-1.8,4.2,4.2,0,0,1,3.29,2.12c.16.26.31.52.51.87.09-.24.17-.41.21-.58a.71.71,0,0,1,1-.54c.56.17.55.58.43,1.06C48,87.72,47.43,89.87,47,92a27,27,0,0,0-.57,4.54,4.88,4.88,0,0,0,.65,2.21,1.44,1.44,0,0,0,1.8.71,5.43,5.43,0,0,0,1.79-.89,7.17,7.17,0,0,0,2.56-4.69c.52-3.59,1.25-7.15,1.89-10.72.09-.5.22-.93.86-.8s.73.56.63,1.1c-.14.79-.29,1.57-.42,2.24a25.74,25.74,0,0,1,2.63-2.3A5.35,5.35,0,0,1,64,83.11a2.89,2.89,0,0,1,1.7,2.48,16.09,16.09,0,0,1-.32,5.15c-.3,2-.66,4-.91,6a7.31,7.31,0,0,0,.1,2.15c.13.76.65,1,1.38.71a7.09,7.09,0,0,0,2.86-2.43,3.38,3.38,0,0,0,.76-2.66,10.42,10.42,0,0,1,3.15-9,5.59,5.59,0,0,1,6-1.32,3.72,3.72,0,0,1,.69.37c.2.13.39.28.68.49.11-.57.21-1.09.32-1.6.93-4.5,1.94-9,4.07-13.1A8.78,8.78,0,0,1,86,68.17a1.64,1.64,0,0,1,2.83.58,6.22,6.22,0,0,1,.33,3.49,58.28,58.28,0,0,1-7.63,22.64A1.55,1.55,0,0,0,81.31,96a10.71,10.71,0,0,0,.88,2.38,2.62,2.62,0,0,0,3.18,1.32,6.87,6.87,0,0,0,3.81-2.84c.23-.3.37-.69.66-.88a1.14,1.14,0,0,1,1-.11.92.92,0,0,1,.29.86c-1.41,2.21-3.11,4.12-5.88,4.51a4.37,4.37,0,0,1-4.86-3.05L80,97A10.43,10.43,0,0,1,79,98.13,14.81,14.81,0,0,1,76.76,100a4.23,4.23,0,0,1-5.88-1.35c-.2-.28-.38-.58-.6-.93-.41.48-.78,1-1.19,1.39a5.57,5.57,0,0,1-3.3,2,2.15,2.15,0,0,1-2.72-1.9,16.77,16.77,0,0,1,0-4c.26-2.19.73-4.36,1-6.54a11.63,11.63,0,0,0,0-2.87c-.12-1-.63-1.37-1.62-1.5a4.76,4.76,0,0,0-5,2.57,23,23,0,0,0-2.73,7.68c-.37,1.91-.64,3.84-1,5.76-.12.74-.54,1-1.11.71a1.1,1.1,0,0,1-.44-.7A4.17,4.17,0,0,1,52.38,99.2ZM35.6,94.32a17.08,17.08,0,0,0,.5,2.55,3.21,3.21,0,0,0,4.55,1.85,6,6,0,0,0,2.92-3.08,43.3,43.3,0,0,0,2.1-5.56,7.3,7.3,0,0,0,.12-3.1,3.24,3.24,0,0,0-4.87-2.42,9.25,9.25,0,0,0-2.57,2.08A12.59,12.59,0,0,0,35.6,94.32Zm35.34-.89c.09.71.15,1.47.29,2.22a5.63,5.63,0,0,0,.42,1.3c1.08,2.38,3.19,2.91,5.15,1.2a27.48,27.48,0,0,0,2.59-2.93.81.81,0,0,0,.15-.48c.06-2.2.09-4.41.16-6.61a2.74,2.74,0,0,0-1.59-2.6,3.51,3.51,0,0,0-3.7.52C71.94,87.86,71.15,90.48,70.95,93.43ZM81,92.51c.13-.22.2-.33.26-.44a56.87,56.87,0,0,0,5.62-15.46c.37-1.81.59-3.66.78-5.51a7.78,7.78,0,0,0-.28-1.93l-.28,0a11.42,11.42,0,0,0-.94,1.21,15.92,15.92,0,0,0-1.07,2.1A56.57,56.57,0,0,0,81,92,4.4,4.4,0,0,0,81,92.51Z" transform="translate(-0.38 9.47)"/><path class="cls-1" d="M173.82,84.88c.36-1.67.7-3.4,1.12-5.11a41.08,41.08,0,0,1,3-9,11.85,11.85,0,0,1,1.6-2.46,1.67,1.67,0,0,1,3,.65,10.57,10.57,0,0,1,.24,3.43,48.8,48.8,0,0,1-2.5,11A47.65,47.65,0,0,1,175.2,95a1.29,1.29,0,0,0-.14.9,10.76,10.76,0,0,0,.68,2.11,2.83,2.83,0,0,0,3.87,1.55,7.64,7.64,0,0,0,3.56-3,3.49,3.49,0,0,1,1-.95c-.06-.29-.12-.59-.17-.88a11.3,11.3,0,0,1,2.69-9.34,7.27,7.27,0,0,1,5.7-2.68A4.43,4.43,0,0,1,196.8,88c-.62,3.35-2.83,5.37-5.77,6.73a12.09,12.09,0,0,1-4.65,1l-.52,0a5.46,5.46,0,0,0,5.77,3.64,8.45,8.45,0,0,0,6-3.3,1.2,1.2,0,0,1,.73-.44.9.9,0,0,1,.7.35.79.79,0,0,1,0,.71c-3,4.46-8.69,5.39-12.29,2.76a17.29,17.29,0,0,1-2.17-2.3l-.49.61a9.45,9.45,0,0,1-3.8,3,4.48,4.48,0,0,1-6-2.4c-.21-.45-.38-.92-.56-1.37-.71.73-1.35,1.48-2.08,2.13-1.94,1.71-4.21,1.88-6,.46a15.1,15.1,0,0,1-1.44-1.5,15.31,15.31,0,0,1-2,1.86,6,6,0,0,1-2.46,1c-2,.23-3.61-1.32-3.87-3.6,0-.23,0-.46-.08-.84l-.44.62a7.52,7.52,0,0,1-3.91,3.14A4.42,4.42,0,0,1,145.9,98a8.56,8.56,0,0,1-.65-5.25,13.9,13.9,0,0,1,4-8.34,6.22,6.22,0,0,1,3.65-1.78,4.39,4.39,0,0,1,4.5,2.17c.08.13.15.27.22.4l.25.42c.09-.26.16-.43.21-.6a.71.71,0,0,1,1-.53c.55.17.55.59.43,1.06-.6,2.39-1.22,4.78-1.76,7.19a10.79,10.79,0,0,0-.32,4.74,4.19,4.19,0,0,0,.59,1.37,1.73,1.73,0,0,0,2.05.61,6.07,6.07,0,0,0,3.34-3.08c.11-.18,0-.51,0-.76a11.47,11.47,0,0,1,2.17-9.29A6.05,6.05,0,0,1,172.1,84,12,12,0,0,1,173.82,84.88ZM157,88.48c-.06-.54-.09-1-.18-1.5a3.2,3.2,0,0,0-3.46-2.81,5.56,5.56,0,0,0-2.29.87c-3.78,2.49-4.91,8.12-4.13,11.33a3.33,3.33,0,0,0,5.5,1.88,9.26,9.26,0,0,0,2.85-4A21.47,21.47,0,0,0,157,88.48Zm7.78,5.24a7.73,7.73,0,0,0,1,3.78c1.1,1.8,2.88,2.24,4.5.9a28.51,28.51,0,0,0,3-3.26.84.84,0,0,0,.1-.49c0-2.09,0-4.19.15-6.28a2.8,2.8,0,0,0-2.23-3.05,4,4,0,0,0-3.74,1.28A9.42,9.42,0,0,0,164.75,93.72Zm20.71.5a10.27,10.27,0,0,0,8.3-3.21,5.65,5.65,0,0,0,1.47-2.74c.47-2.16-.53-3.75-2.54-4a4.77,4.77,0,0,0-3,.58A9.72,9.72,0,0,0,185.46,94.22ZM174.7,92.31l.19,0,.13-.21c.1-.17.2-.34.29-.51a58.58,58.58,0,0,0,5.79-17.18,11.91,11.91,0,0,0,.27-4.36,8.74,8.74,0,0,0-.36-1,6.06,6.06,0,0,0-.84,1,39.45,39.45,0,0,0-1.95,4.07,59.48,59.48,0,0,0-3.25,14C174.81,89.48,174.79,90.9,174.7,92.31Z" transform="translate(-0.38 9.47)"/><path class="cls-1" d="M120.1,69.75l.32-.71a9.92,9.92,0,0,1,3.24-4.29A5.38,5.38,0,0,1,132,67.29a16.4,16.4,0,0,1,.74,6.15c0,.2,0,.39,0,.59,0,0,0,0,.08.11a8.53,8.53,0,0,1,.5-.84,21.43,21.43,0,0,1,2.13-2.72c3.18-3,7.56-1.71,8.64,2.53a20,20,0,0,1,.33,6.2c-.26,4.38-1.32,8.64-2.09,12.94a36.33,36.33,0,0,0-1,8.71,7.5,7.5,0,0,0,.24,1.42,1.36,1.36,0,0,0,1.43,1.19.63.63,0,0,1,.69.71.69.69,0,0,1-.73.75,2.44,2.44,0,0,1-2.54-1.48,6.85,6.85,0,0,1-.62-4.09c.47-3.51,1-7,1.56-10.5s1.09-7.13,1.55-10.7a11.52,11.52,0,0,0-.45-5.06c-.9-2.77-3.56-3.54-5.82-1.69a11,11,0,0,0-3.07,4.81,50.31,50.31,0,0,0-2.38,9.25c-.9,4.95-1.86,9.88-2.79,14.82-.09.48-.33.79-.85.67a.78.78,0,0,1-.63-1c.88-4.68,1.76-9.37,2.61-14.06a72.18,72.18,0,0,0,1.63-13.59,22.19,22.19,0,0,0-.4-3.91c-.71-3.72-4.47-3.93-6.52-2.19a9.44,9.44,0,0,0-2.38,3.41,39.2,39.2,0,0,0-2.62,9.25q-2,10.74-4,21.47c-.09.47-.2.94-.84.86s-.77-.5-.66-1.14Q115.91,88,118,75.82a20,20,0,0,0,.17-8c-.94-4.1-4.55-6.45-8.4-5.39-2.82.77-4.26,2.84-4.84,5.58a9.92,9.92,0,0,0,.08,4.49c.93,3.73,6.15,5.58,9.06,3.95.62-.34,1-.25,1.28.22s.06.83-.59,1.18c-3.55,1.88-10.45.22-11.42-5.88a10.57,10.57,0,0,1,1.56-7.79,7.46,7.46,0,0,1,7.39-3.43,7.57,7.57,0,0,1,6.78,5A32.94,32.94,0,0,1,120.1,69.75Z" transform="translate(-0.38 9.47)"/><path class="cls-1" d="M21.75,66.38c-2.56.18-5.07.33-7.57.56a7.46,7.46,0,0,0-2.07.6,3.9,3.9,0,0,0-2.4,2.68c-.14.5-.39.88-1,.7s-.66-.6-.51-1.15A5.37,5.37,0,0,1,11,66.37a11.69,11.69,0,0,1,4.88-1.15c1.62-.11,3.24-.11,4.85-.26,1.28-.12,2.55-.37,3.81-.61.69-.13,1,0,1.1.54s-.07,1-.73,1.06a2.58,2.58,0,0,0-1.79,1.32,15.3,15.3,0,0,0-2,5.57c-.75,4-1.44,7.91-2.15,11.87a2.85,2.85,0,0,0,0,.41c3.75-.22,7.48-.75,11.3-.12.17-1.15.33-2.27.5-3.38a53.6,53.6,0,0,1,2.79-11.78,11.43,11.43,0,0,1,2.54-4.17,4.15,4.15,0,0,1,2.68-1.25c.45,0,.8.1.85.6a.72.72,0,0,1-.66.89A3.7,3.7,0,0,0,36.11,68a22.62,22.62,0,0,0-2.7,7.49c-.61,3.15-1.07,6.33-1.6,9.5a2.74,2.74,0,0,0,0,.42c.44.19.88.36,1.31.57a.66.66,0,0,1,.37,1,.75.75,0,0,1-1,.43c-.3-.12-.58-.27-.9-.42-.5,4.17-1,8.28-1.51,12.37a28.06,28.06,0,0,1-.82,3.43.64.64,0,0,1-.91.49.72.72,0,0,1-.46-1A21.49,21.49,0,0,0,29,96.1c.36-3,.68-6.09,1-9.13,0-.12,0-.25,0-.42a24.37,24.37,0,0,0-5.83-.27c-1.66.08-3.32.22-5,.3-.46,0-.62.15-.7.62A39.27,39.27,0,0,1,15.36,98a12.1,12.1,0,0,1-3.83,4.91,6.44,6.44,0,0,1-6.78.57A6.27,6.27,0,0,1,1.2,97.94a6.69,6.69,0,0,1,4-7c2.07-.83,4.14-.89,5.88.75a7.17,7.17,0,0,1,1.26,2,.7.7,0,0,1-.43,1.06c-.51.16-.84-.08-1-.58a3.06,3.06,0,0,0-3.15-2.37,5.32,5.32,0,0,0-4.87,4.08,5.64,5.64,0,0,0,1.58,5.54c1.77,1.7,4.64,1.6,6.77-.18A10.35,10.35,0,0,0,14,97.32a49.07,49.07,0,0,0,2.92-10.46.44.44,0,0,0,0-.15c-1.08-.07-2.17-.1-3.24-.23A6.79,6.79,0,0,1,8.78,84.1a5.05,5.05,0,0,1-.72-5.55,4.91,4.91,0,0,1,4.6-2.85,3.67,3.67,0,0,1,3.55,2.7,3.91,3.91,0,0,1-1.29,4.42,3,3,0,0,1-1,.57,1.08,1.08,0,0,1-.89-.2.71.71,0,0,1,.17-1,1.63,1.63,0,0,1,.34-.2,2.47,2.47,0,0,0,1.16-3.29,2.41,2.41,0,0,0-3.19-1.27,3.44,3.44,0,0,0-2.31,2.79,3.61,3.61,0,0,0,1.42,3.59A6.68,6.68,0,0,0,14.2,85c.84.11,1.7.1,2.55.18.42,0,.55-.11.62-.53.76-4.19,1.52-8.39,2.33-12.57a19.65,19.65,0,0,1,.82-2.9C20.85,68.29,21.3,67.41,21.75,66.38Z" transform="translate(-0.38 9.47)"/><path class="cls-3" d="M100.18,30.24a8.14,8.14,0,0,1,4.9-2.77,7.85,7.85,0,0,1,9,7.75,5.15,5.15,0,0,1-.43,1.77,32.61,32.61,0,0,1-4.52,7.35,40.28,40.28,0,0,1-6.59,7.1c-1.94,1.57-2.79,1.57-4.71,0A42.81,42.81,0,0,1,90,42.58c-1.07-1.54-2-3.18-2.91-4.82a6.2,6.2,0,0,1,.4-6.65,7.81,7.81,0,0,1,12.27-1.38C99.88,29.87,100,30,100.18,30.24Zm-.05,3c-.24-.41-.47-.82-.72-1.23a6.18,6.18,0,0,0-6.73-2.79c-3.39.8-6,4.93-3.92,8.35.59,1,1.11,2,1.76,2.92A51.7,51.7,0,0,0,98.74,50c1.37,1.21,1.57,1.23,2.91,0a49.64,49.64,0,0,0,9.75-11.93,5.46,5.46,0,0,0,1-3.27,5.94,5.94,0,0,0-3.84-5.27,5.73,5.73,0,0,0-6.4,1.15A20,20,0,0,0,100.13,33.28Z" transform="translate(-0.38 9.47)"/><path class="cls-4" d="M33.86,34.2c.46-.56.87-1.09,1.34-1.57a.76.76,0,0,1,.66-.11c1.41.52,2.82,1.08,4.22,1.63l.68.25c-.95-1.51-1.79-2.9-2.69-4.26a.71.71,0,0,1,.09-1.06c.4-.4.74-.86,1.17-1.36l6,5.06-1,1.25-4-3.37-.09.07L43,35.46a.4.4,0,0,1,0,.08c-.72,1-.72,1-1.87.59-1.36-.52-2.72-1-4.14-1.45L40.93,38l-1,1.26Z" transform="translate(-0.38 9.47)"/><path class="cls-4" d="M86.65,5.19c-.11,1.53-.23,3-.31,4.58,0,.47-.15.73-.67.72-.24,0-.48.12-.71.1a.75.75,0,0,1-.54-.27c-1.09-2.31-2.16-4.63-3.26-7L82.87,3l2,4.79H85c.06-.68.13-1.36.18-2,.07-.89.16-1.79.19-2.68s.7-.54,1.1-.7.62,0,.79.4a46.65,46.65,0,0,0,2,4.31l.35-5.25,1.65-.3c-.06.73-.12,1.4-.18,2.07-.16,1.83-.34,3.66-.49,5.49,0,.41-.15.66-.6.65a.86.86,0,0,0-.26.06.88.88,0,0,1-1.27-.63c-.51-1.34-1.14-2.64-1.73-4Z" transform="translate(-0.38 9.47)"/><path class="cls-4" d="M53.22,15.73c1.23-.74,2.37-1.51,3.6-2.12a2.88,2.88,0,0,1,3.26.43A5,5,0,0,1,62,17.57a2.84,2.84,0,0,1-1.17,2.64c-1.07.78-2.21,1.47-3.37,2.23Zm4.93,4.53c1-.72,2.37-1.07,2.14-2.61a3,3,0,0,0-2-2.58c-1.15-.4-1.92.51-2.83,1Z" transform="translate(-0.38 9.47)"/><path class="cls-4" d="M144.46,22.44a4,4,0,0,1-3.89-3.76,4.62,4.62,0,0,1,4.18-4.51A4,4,0,0,1,148.66,18,4.53,4.53,0,0,1,144.46,22.44ZM147,17.75A2,2,0,0,0,144,16a3.63,3.63,0,0,0-1.73,2.51,1.81,1.81,0,0,0,.74,1.91,1.92,1.92,0,0,0,2,.3A3.68,3.68,0,0,0,147,17.75Z" transform="translate(-0.38 9.47)"/><path class="cls-4" d="M115.19,2.36l1.7.37-.62,2.94,3.07.67L120,3.42l1.69.34L120,11.47l-1.69-.37.7-3.3L116,7.12l-.74,3.29-1.7-.35Z" transform="translate(-0.38 9.47)"/><path class="cls-4" d="M162.74,28.7l3.81,4.52-1.13.94L162.74,31l-1.27,1.06L163.92,35l-1,.87L160.42,33,159,34.17l2.72,3.25-1.11.94-3.86-4.56Z" transform="translate(-0.38 9.47)"/><path class="cls-4" d="M72.3,12.86l.59,1.33L67.43,16.6l-3.19-7.2L69.62,7l.6,1.34L66.44,10l.67,1.51L70.57,10l.57,1.22-3.48,1.56.78,1.73Z" transform="translate(-0.38 9.47)"/><path class="cls-4" d="M48.27,29.87c-.93-2.58-1.84-5.06-2.71-7.55a.74.74,0,0,1,.17-.64c1-.93,1-.91,2.22-.23l6.17,3.39c-.42.36-.77.7-1.17,1a.67.67,0,0,1-.56,0c-1.29-.67-1.28-.67-2.38.28s-1.07.92-.57,2.21a.56.56,0,0,1-.21.77C48.93,29.29,48.65,29.55,48.27,29.87Zm.17-4.17L50,24.39l-2.62-1.52Z" transform="translate(-0.38 9.47)"/><path class="cls-4" d="M153.83,20.22c1.4,1,1.41,1,.74,2.47-.57,1.27-1.15,2.53-1.81,4l5-2.94,1.33,1.2L157,26.15c-1.56.89-3.12,1.77-4.67,2.67a.53.53,0,0,1-.74-.08c-1.14-1-1.13-1-.51-2.38.83-1.83,1.64-3.67,2.45-5.51C153.62,20.65,153.73,20.44,153.83,20.22Z" transform="translate(-0.38 9.47)"/><path class="cls-4" d="M109.72,3l-2.3-.13L107,9.29l-1.71-.14c.09-1.35.18-2.67.27-4,0-.65.08-1.31.15-2,0-.36-.09-.46-.43-.47-.61,0-1.21-.08-1.89-.13l.1-1.45,4.62.32.52.05C109.94,1.59,109.94,1.59,109.72,3Z" transform="translate(-0.38 9.47)"/><path class="cls-4" d="M134.07,8.06l1.58.75-2.72,5.8,3.44,1.63-.59,1.33-5.06-2.37Z" transform="translate(-0.38 9.47)"/><path class="cls-4" d="M98.5,9l-1.64.09-.31-7.85c.4,0,.76,0,1.12-.1s.66.06.67.57c0,1.7.11,3.4.16,5.1C98.52,7.55,98.5,8.24,98.5,9Z" transform="translate(-0.38 9.47)"/><path class="cls-5" d="M100.13,33.28a20,20,0,0,1,2-2.58,5.73,5.73,0,0,1,6.4-1.15,5.94,5.94,0,0,1,3.84,5.27,5.46,5.46,0,0,1-1,3.27A49.64,49.64,0,0,1,101.65,50c-1.34,1.21-1.54,1.19-2.91,0a51.7,51.7,0,0,1-8.23-9.49c-.64-.93-1.17-1.95-1.76-2.92-2.07-3.42.53-7.55,3.92-8.35A6.18,6.18,0,0,1,99.41,32C99.66,32.45,99.89,32.87,100.13,33.28Z" transform="translate(-0.38 9.47)"/><path class="cls-6" d="M96.59,142.68c-6.46-3.33-11.8-7.78-14.47-14.77a32.71,32.71,0,0,1-1.32-17.65A33.49,33.49,0,0,1,93,117.56a24.67,24.67,0,0,1,7.2,12.19,24.84,24.84,0,0,1,7.18-12.16,33.86,33.86,0,0,1,12.25-7.34c1.12,6.67.84,13.1-2,19.23s-7.89,10.16-13.76,13.35c1.81-.19,3.63-.32,5.43-.57a65.07,65.07,0,0,0,23.74-8.1c1.89-1.09,3.71-2.32,5.52-3.54a1.6,1.6,0,0,0,.48-1,15.88,15.88,0,0,1,2.89-7,13.66,13.66,0,0,1,8.27-4.93c.93-.21,1.89-.3,3.06-.48-.19,1.21-.29,2.29-.54,3.33a13.23,13.23,0,0,1-6,8.79,17.19,17.19,0,0,1-6.08,2.15,2.21,2.21,0,0,0-.88.36,68.08,68.08,0,0,1-79,0,2.56,2.56,0,0,0-1-.41,15,15,0,0,1-8.39-4,14.74,14.74,0,0,1-3.91-8.28c-.1-.6-.12-1.2-.2-2,1.32.23,2.53.35,3.7.66,6,1.58,9.37,5.62,10.42,11.66a1.73,1.73,0,0,0,.76,1.27,65.94,65.94,0,0,0,28.63,11.34c1.92.27,3.86.44,5.79.66Zm2.45-.78c.81-5.51.13-13.31-3.57-18.81-3.3-4.91-7.94-8.12-13.34-10.55-.6,6.74-.06,13.14,3.68,18.86C89,136.35,93.72,139.51,99,141.91Zm19.26-29.3c-13.68,5.84-18.54,16.33-16.91,29.3,5.36-2.42,10.07-5.61,13.3-10.61C118.36,125.59,118.88,119.24,118.29,112.6Zm32.94,6.74c-5,.19-10.55,5.81-10.37,10.38C146.59,128.77,150.18,125.3,151.23,119.34Zm-91.66,10.4c-.26-5-5.75-10.51-10.38-10.38C50.2,125.43,54,128.75,59.58,129.74Z" transform="translate(-0.38 9.47)"/><path class="cls-7" d="M94.52,110a5.68,5.68,0,1,1,5.63,5.72A5.68,5.68,0,0,1,94.52,110Zm1.69,0a4,4,0,1,0,3.85-4A4,4,0,0,0,96.22,110.08Z" transform="translate(-0.38 9.47)"/><path class="cls-8" d="M99,141.91c-5.31-2.4-10-5.56-13.23-10.5-3.74-5.72-4.29-12.12-3.68-18.86,5.4,2.43,10,5.63,13.34,10.55C99.16,128.59,99.85,136.4,99,141.91Z" transform="translate(-0.38 9.47)"/><path class="cls-8" d="M118.29,112.6c.59,6.63.06,13-3.61,18.69-3.22,5-7.94,8.19-13.3,10.61C99.76,128.93,104.61,118.44,118.29,112.6Z" transform="translate(-0.38 9.47)"/><path class="cls-8" d="M151.23,119.34c-1.05,6-4.64,9.43-10.37,10.38C140.68,125.15,146.27,119.53,151.23,119.34Z" transform="translate(-0.38 9.47)"/><path class="cls-8" d="M59.58,129.74c-5.62-1-9.38-4.31-10.38-10.38C53.83,119.23,59.32,124.7,59.58,129.74Z" transform="translate(-0.38 9.47)"/><path class="cls-5" d="M96.22,110.08a4,4,0,1,1,4.09,4A4,4,0,0,1,96.22,110.08Z" transform="translate(-0.38 9.47)"/><path class="cls-9" d="M63.66,148a4,4,0,0,0-.28-2.17,4.34,4.34,0,0,0-2-1.79,5,5,0,0,0-1.58-.58,3.14,3.14,0,0,0-1.5.14,3.81,3.81,0,0,0-1.55,1.11A11.67,11.67,0,0,0,55.22,147l-.93,1.7a11.67,11.67,0,0,0-1.08,2.56,3.81,3.81,0,0,0-.09,1.9,3.14,3.14,0,0,0,.69,1.33,5,5,0,0,0,1.34,1,4.72,4.72,0,0,0,2.85.68,2.09,2.09,0,0,0,1.7-.93l1.6-2.94-2.14-1.16.28-.52,2.76,1.5-1.79,3.28a2.77,2.77,0,0,1-2.13,1.41,5.42,5.42,0,0,1-3.42-.81,4.06,4.06,0,0,1-2.38-3,8,8,0,0,1,1.27-4.61l.93-1.7a8,8,0,0,1,3.18-3.57,4.06,4.06,0,0,1,3.81.37,4.89,4.89,0,0,1,2.23,2,4.64,4.64,0,0,1,.34,2.52Z" transform="translate(-0.38 9.47)"/><path class="cls-9" d="M69.66,156.14l.45,6.34-.61-.23L69,155.71l.38,0,.48-.05.46-.09a1.8,1.8,0,0,0,.51-.17l.43-.26a1.55,1.55,0,0,0,.41-.39,2.34,2.34,0,0,0,.3-.55,1.94,1.94,0,0,0-.45-2.14A6.55,6.55,0,0,0,69,150.41l-1.48-.57L63.65,160l-.55-.21,4.1-10.72,2,.78a6.31,6.31,0,0,1,3,2,2.54,2.54,0,0,1,.33,2.5,2.38,2.38,0,0,1-1.15,1.29A4.15,4.15,0,0,1,69.66,156.14Z" transform="translate(-0.38 9.47)"/><path class="cls-9" d="M81.49,164.2a5.17,5.17,0,0,1-6.89-1.64,10.14,10.14,0,0,1,2.1-8.81,5.17,5.17,0,0,1,6.89,1.64,10.14,10.14,0,0,1-2.1,8.81Zm.41-9.84a6.75,6.75,0,0,0-3.23-.77,3,3,0,0,0-1.38.46,3.51,3.51,0,0,0-1.2,1.4,13.5,13.5,0,0,0-1.26,5.29,3.51,3.51,0,0,0,.44,1.79,3,3,0,0,0,1,1,6.75,6.75,0,0,0,3.23.77,3,3,0,0,0,1.38-.46,3.51,3.51,0,0,0,1.2-1.4,13.5,13.5,0,0,0,1.26-5.29,3.51,3.51,0,0,0-.44-1.79A3,3,0,0,0,81.91,154.36Z" transform="translate(-0.38 9.47)"/><path class="cls-9" d="M90.82,154.94a4.65,4.65,0,0,1,3.35,1.45l-.44.39a4.17,4.17,0,0,0-2.89-1.24q-3.07-.32-3.33,2.12a1.8,1.8,0,0,0,.59,1.58,5.42,5.42,0,0,0,1.73,1q1,.41,2.08.85a4.46,4.46,0,0,1,1.71,1.23,2.5,2.5,0,0,1,.55,2,2.55,2.55,0,0,1-1.35,2,5.55,5.55,0,0,1-3.33.46,7.85,7.85,0,0,1-2-.49,3.14,3.14,0,0,1-1.42-1l.44-.39a4.46,4.46,0,0,0,3,1.25,4.91,4.91,0,0,0,3-.4,2,2,0,0,0,1.15-1.55,2,2,0,0,0-.58-1.67,5.06,5.06,0,0,0-1.73-1.11l-2.08-.86a4.62,4.62,0,0,1-1.71-1.2,2.36,2.36,0,0,1-.56-1.89,2.62,2.62,0,0,1,1.25-2.15A4.27,4.27,0,0,1,90.82,154.94Z" transform="translate(-0.38 9.47)"/><path class="cls-9" d="M98,155.71l.11,5.74a6.88,6.88,0,0,0,1,4.13,3.38,3.38,0,0,0,5.16-.09,6.89,6.89,0,0,0,.86-4.16l-.11-5.74h.59l.11,5.74q.11,5.93-4,6t-4.22-5.86l-.11-5.74Z" transform="translate(-0.38 9.47)"/><path class="cls-9" d="M118.75,165.35l-1.86.4L114,152.2l1.86-.4a6.39,6.39,0,0,1,5.16,1,6.88,6.88,0,0,1,2,9.44A6.38,6.38,0,0,1,118.75,165.35Zm-.12-.58a5.84,5.84,0,0,0,3.91-2.79,6.31,6.31,0,0,0-1.85-8.65,5.84,5.84,0,0,0-4.7-.95l-1.28.27L117.35,165Z" transform="translate(-0.38 9.47)"/><path class="cls-9" d="M125.57,151.84l.57-.17,3.36,11-.57.17Z" transform="translate(-0.38 9.47)"/><polygon class="cls-10" points="133.4 170.76 129.11 160.11 129.66 159.89 139.53 167.12 135.65 157.49 136.2 157.26 140.48 167.91 139.93 168.13 130.06 160.88 133.95 170.54 133.4 170.76"/><polygon class="cls-10" points="133.4 170.76 134.25 170.42 129.96 159.77 129.11 160.11 129.46 160.96 129.53 160.93 140.44 168.47 136.5 157.14 135.65 157.49 135.99 158.34 136.54 158.11 136.2 157.26 135.35 157.6 139.63 168.25 140.48 167.91 140.14 167.06 140.06 167.09 128.94 159.59 133.09 170.88 133.95 170.54 133.6 169.69 133.05 169.91 133.4 170.76 134.25 170.42 133.4 170.76 133.74 171.61 134.29 171.39 135.14 171.05 132.12 163.53 139.8 169.17 141.68 168.42 136.71 156.07 134.45 156.98 137.47 164.48 129.79 158.85 127.92 159.6 132.89 171.95 133.74 171.61 133.4 170.76"/><polygon class="cls-11" points="149.83 158.72 145.7 160.96 145.64 160.39 149.33 158.37 149.83 158.72"/><polygon class="cls-9" points="152.35 161.93 151.78 162.22 142.88 155.24 144 166.21 143.45 166.51 142.15 153.9 152.35 161.93"/><path class="cls-5" d="M33.86,67.58" transform="translate(-0.38 9.47)"/><path class="cls-12" d="M149.7,153.27" transform="translate(-0.38 9.47)"/><path class="cls-12" d="M140.72,158.87" transform="translate(-0.38 9.47)"/></svg>